<svg width="247" height="73" viewBox="0 0 247 73" fill="none" xmlns="http://www.w3.org/2000/svg">
<path d="M237.183 0H9.12244C4.08426 0 0 4.04855 0 9.0427V63.2989C0 68.293 4.08426 72.3416 9.12244 72.3416H237.183C242.222 72.3416 246.306 68.293 246.306 63.2989V9.0427C246.306 4.04855 242.222 0 237.183 0Z" fill="black"/>
<path d="M237.183 1.44683C239.216 1.44683 241.165 2.24711 242.602 3.67161C244.039 5.09611 244.846 7.02815 244.846 9.0427V63.2989C244.846 65.3134 244.039 67.2455 242.602 68.67C241.165 70.0945 239.216 70.8948 237.183 70.8948H9.12244C7.09013 70.8948 5.14105 70.0945 3.70399 68.67C2.26692 67.2455 1.45959 65.3134 1.45959 63.2989V9.0427C1.45959 7.02815 2.26692 5.09611 3.70399 3.67161C5.14105 2.24711 7.09013 1.44683 9.12244 1.44683H237.183ZM237.183 0H9.12244C6.70302 0 4.38269 0.95271 2.6719 2.64854C0.961111 4.34438 0 6.64443 0 9.0427V63.2989C0 65.6972 0.961111 67.9972 2.6719 69.693C4.38269 71.3889 6.70302 72.3416 9.12244 72.3416H237.183C239.603 72.3416 241.923 71.3889 243.634 69.693C245.345 67.9972 246.306 65.6972 246.306 63.2989V9.0427C246.306 6.64443 245.345 4.34438 243.634 2.64854C241.923 0.95271 239.603 0 237.183 0Z" fill="#A6A6A6"/>
<path d="M58.5899 34.9265C58.5395 29.3727 63.1775 26.6707 63.3896 26.5449C60.7629 22.7487 56.6916 22.2301 55.2609 22.1887C51.8415 21.832 48.5247 24.2169 46.7828 24.2169C45.0062 24.2169 42.3239 22.2232 39.4329 22.2818C35.7128 22.3386 32.2325 24.4737 30.3238 27.7891C26.3846 34.5491 29.3225 44.4833 33.0965 49.9475C34.9844 52.6237 37.1904 55.6117 40.0779 55.5066C42.9027 55.3911 43.9579 53.7213 47.3669 53.7213C50.7446 53.7213 51.7355 55.5066 54.6803 55.4393C57.712 55.3911 59.6208 52.7512 61.4426 50.0509C63.6243 46.9837 64.5004 43.9629 64.5352 43.8078C64.4639 43.7837 58.6473 41.5832 58.5899 34.9265Z" fill="white"/>
<path d="M53.0272 18.5949C54.5465 16.7115 55.5861 14.1491 55.2975 11.5488C53.0985 11.6453 50.3483 13.0566 48.7647 14.8987C47.3635 16.5219 46.1119 19.1826 46.4352 21.6846C48.9055 21.8673 51.4418 20.4491 53.0272 18.5949Z" fill="white"/>
<path d="M99.4702 55.1236H95.5223L93.3598 48.3876H85.843L83.783 55.1236H79.9395L87.3867 32.1914H91.9865L99.4702 55.1236ZM92.7079 45.5616L90.7522 39.5735C90.5453 38.9618 90.1577 37.5212 89.5857 35.2535H89.5162C89.2885 36.2288 88.9217 37.6694 88.4175 39.5735L86.4966 45.5616H92.7079V45.5616Z" fill="white"/>
<path d="M118.622 46.652C118.622 49.4643 117.855 51.6872 116.322 53.319C114.949 54.7717 113.243 55.4972 111.208 55.4972C109.01 55.4972 107.432 54.7148 106.471 53.1502H106.401V61.8609H102.695V44.0311C102.695 42.2631 102.648 40.4486 102.558 38.5875H105.817L106.024 41.2085H106.093C107.329 39.2337 109.205 38.248 111.722 38.248C113.69 38.248 115.333 39.0183 116.647 40.5606C117.965 42.1045 118.622 44.1345 118.622 46.652ZM114.846 46.7864C114.846 45.177 114.481 43.8501 113.748 42.8059C112.946 41.7168 111.87 41.1723 110.521 41.1723C109.607 41.1723 108.776 41.4756 108.034 42.0735C107.289 42.6766 106.803 43.4641 106.575 44.4395C106.46 44.8944 106.403 45.2666 106.403 45.5595V48.3166C106.403 49.5194 106.775 50.5344 107.519 51.3632C108.263 52.1921 109.23 52.6056 110.419 52.6056C111.815 52.6056 112.901 52.0715 113.678 51.0065C114.457 49.9399 114.846 48.5338 114.846 46.7864Z" fill="white"/>
<path d="M137.809 46.652C137.809 49.4643 137.042 51.6872 135.507 53.319C134.136 54.7717 132.43 55.4972 130.395 55.4972C128.197 55.4972 126.619 54.7148 125.659 53.1502H125.59V61.8609H121.883V44.0311C121.883 42.2631 121.836 40.4486 121.746 38.5875H125.006L125.212 41.2085H125.282C126.516 39.2337 128.392 38.248 130.911 38.248C132.877 38.248 134.52 39.0183 135.837 40.5606C137.15 42.1045 137.809 44.1345 137.809 46.652ZM134.033 46.7864C134.033 45.177 133.666 43.8501 132.933 42.8059C132.131 41.7168 131.059 41.1723 129.708 41.1723C128.792 41.1723 127.963 41.4756 127.219 42.0735C126.474 42.6766 125.989 43.4641 125.762 44.4395C125.649 44.8944 125.59 45.2666 125.59 45.5595V48.3166C125.59 49.5194 125.962 50.5344 126.702 51.3632C127.446 52.1904 128.413 52.6056 129.605 52.6056C131.001 52.6056 132.088 52.0715 132.865 51.0065C133.644 49.9399 134.033 48.5338 134.033 46.7864Z" fill="white"/>
<path d="M159.259 48.6927C159.259 50.6434 158.576 52.2304 157.205 53.4556C155.697 54.7946 153.599 55.4631 150.903 55.4631C148.414 55.4631 146.418 54.9875 144.907 54.0346L145.766 50.9725C147.393 51.9478 149.178 52.4372 151.124 52.4372C152.52 52.4372 153.606 52.1236 154.387 51.4998C155.164 50.876 155.551 50.0386 155.551 48.9943C155.551 48.0638 155.231 47.2797 154.59 46.6439C153.952 46.008 152.886 45.417 151.398 44.8707C147.348 43.3733 145.324 41.1796 145.324 38.295C145.324 36.4099 146.034 34.8642 147.454 33.6614C148.869 32.4569 150.757 31.8555 153.118 31.8555C155.223 31.8555 156.972 32.2191 158.368 32.9445L157.441 35.9394C156.137 35.2364 154.663 34.8848 153.013 34.8848C151.71 34.8848 150.691 35.2036 149.961 35.8378C149.344 36.4047 149.034 37.0957 149.034 37.9142C149.034 38.8206 149.387 39.5702 150.096 40.1595C150.713 40.704 151.835 41.2934 153.462 41.9292C155.452 42.7236 156.914 43.6524 157.855 44.7173C158.792 45.7788 159.259 47.1074 159.259 48.6927Z" fill="white"/>
<path d="M171.515 41.346H167.429V49.3743C167.429 51.4163 168.149 52.4364 169.592 52.4364C170.254 52.4364 170.804 52.3796 171.238 52.2658L171.341 55.0557C170.611 55.3262 169.649 55.4623 168.458 55.4623C166.995 55.4623 165.851 55.0195 165.025 54.1355C164.203 53.2498 163.789 51.7644 163.789 49.6776V41.3425H161.355V38.5854H163.789V35.5578L167.429 34.4688V38.5854H171.515V41.346Z" fill="white"/>
<path d="M189.946 46.7195C189.946 49.2612 189.213 51.348 187.749 52.9798C186.214 54.6599 184.177 55.4974 181.637 55.4974C179.189 55.4974 177.241 54.6927 175.787 53.0832C174.334 51.4738 173.607 49.4421 173.607 46.9935C173.607 44.4311 174.355 42.3322 175.855 40.7004C177.352 39.0668 179.372 38.25 181.912 38.25C184.359 38.25 186.329 39.0547 187.815 40.6659C189.237 42.2288 189.946 44.2467 189.946 46.7195ZM186.101 46.8384C186.101 45.3134 185.773 44.0055 185.107 42.9147C184.33 41.5947 183.219 40.9365 181.78 40.9365C180.29 40.9365 179.158 41.5964 178.381 42.9147C177.715 44.0072 177.387 45.3358 177.387 46.9073C177.387 48.4323 177.715 49.7402 178.381 50.8293C179.182 52.1492 180.302 52.8075 181.747 52.8075C183.162 52.8075 184.272 52.1355 185.074 50.7948C185.757 49.6834 186.101 48.3617 186.101 46.8384Z" fill="white"/>
<path d="M201.993 41.8185C201.626 41.7513 201.235 41.7168 200.825 41.7168C199.521 41.7168 198.513 42.2045 197.804 43.1815C197.187 44.0431 196.877 45.1322 196.877 46.447V55.1232H193.173L193.207 43.795C193.207 41.8891 193.16 40.1539 193.068 38.5892H196.297L196.432 41.753H196.535C196.926 40.6657 197.543 39.7903 198.388 39.1338C199.214 38.5427 200.105 38.248 201.067 38.248C201.409 38.248 201.719 38.2722 201.993 38.3153V41.8185Z" fill="white"/>
<path d="M218.569 46.0748C218.569 46.733 218.526 47.2879 218.433 47.7411H207.315C207.358 49.3747 207.895 50.624 208.928 51.4856C209.865 52.2558 211.077 52.6418 212.565 52.6418C214.211 52.6418 215.713 52.3816 217.064 51.8595L217.644 54.4098C216.066 55.0922 214.202 55.4317 212.052 55.4317C209.465 55.4317 207.435 54.6769 205.957 53.1691C204.483 51.6613 203.744 49.6366 203.744 47.0966C203.744 44.6032 204.431 42.5267 205.806 40.8707C207.245 39.1027 209.19 38.2188 211.638 38.2188C214.042 38.2188 215.862 39.1027 217.098 40.8707C218.077 42.2751 218.569 44.0121 218.569 46.0748ZM215.035 45.1218C215.059 44.0328 214.818 43.0919 214.315 42.2975C213.674 41.2757 212.688 40.7656 211.362 40.7656C210.15 40.7656 209.164 41.2636 208.412 42.2631C207.795 43.0575 207.428 44.0104 207.315 45.1201H215.035V45.1218Z" fill="white"/>
<path d="M91.4827 18.0833C91.4827 20.1114 90.869 21.6382 89.6435 22.6635C88.5083 23.6095 86.8951 24.0834 84.8056 24.0834C83.7695 24.0834 82.8829 24.0386 82.1406 23.949V12.8672C83.1089 12.7121 84.1519 12.6328 85.2784 12.6328C87.2689 12.6328 88.7691 13.0619 89.7808 13.92C90.9142 14.8902 91.4827 16.2774 91.4827 18.0833ZM89.5618 18.1332C89.5618 16.8184 89.2106 15.8104 88.5083 15.1073C87.806 14.406 86.7804 14.0544 85.4296 14.0544C84.856 14.0544 84.3675 14.0924 83.9625 14.1716V22.5963C84.1867 22.6307 84.597 22.6463 85.1932 22.6463C86.5874 22.6463 87.6635 22.262 88.4214 21.4934C89.1793 20.7249 89.5618 19.6048 89.5618 18.1332Z" fill="white"/>
<path d="M101.669 19.8531C101.669 21.1024 101.309 22.126 100.589 22.929C99.8347 23.7544 98.8351 24.1663 97.587 24.1663C96.384 24.1663 95.4262 23.7717 94.7117 22.979C93.9989 22.1881 93.6426 21.1903 93.6426 19.9875C93.6426 18.7296 94.0094 17.6974 94.7464 16.8961C95.4835 16.0949 96.4744 15.6934 97.7226 15.6934C98.9255 15.6934 99.8921 16.088 100.624 16.8789C101.319 17.6475 101.669 18.64 101.669 19.8531ZM99.7791 19.9117C99.7791 19.1621 99.6157 18.5194 99.2906 17.9835C98.9081 17.3356 98.364 17.0116 97.6565 17.0116C96.9246 17.0116 96.3684 17.3356 95.9859 17.9835C95.6591 18.5194 95.4974 19.1725 95.4974 19.9445C95.4974 20.6941 95.6608 21.3368 95.9859 21.8727C96.3805 22.5206 96.9299 22.8446 97.6391 22.8446C98.3345 22.8446 98.8803 22.5155 99.2732 21.8555C99.6104 21.3092 99.7791 20.6613 99.7791 19.9117Z" fill="white"/>
<path d="M115.325 15.8594L112.761 23.9825H111.092L110.03 20.4551C109.761 19.5746 109.542 18.6992 109.371 17.8307H109.338C109.18 18.7233 108.961 19.597 108.679 20.4551L107.551 23.9825H105.863L103.452 15.8594H105.324L106.251 19.721C106.475 20.6343 106.659 21.5045 106.807 22.3282H106.84C106.976 21.6493 107.2 20.7842 107.516 19.7383L108.679 15.8611H110.164L111.278 19.6556C111.548 20.5809 111.767 21.4718 111.935 22.3299H111.986C112.109 21.4942 112.295 20.6033 112.542 19.6556L113.537 15.8611H115.325V15.8594Z" fill="white"/>
<path d="M124.769 23.9832H122.947V19.3306C122.947 17.8969 122.398 17.18 121.296 17.18C120.755 17.18 120.319 17.3765 119.98 17.7711C119.644 18.1657 119.474 18.6309 119.474 19.1634V23.9814H117.652V18.1812C117.652 17.4678 117.629 16.6941 117.586 15.8566H119.187L119.272 17.1266H119.323C119.535 16.732 119.851 16.4063 120.267 16.1461C120.76 15.8428 121.313 15.6895 121.918 15.6895C122.683 15.6895 123.319 15.9341 123.825 16.4253C124.454 17.0266 124.769 17.9244 124.769 19.1169V23.9832V23.9832Z" fill="white"/>
<path d="M129.793 23.9832H127.973V12.1328H129.793V23.9832Z" fill="white"/>
<path d="M140.52 19.8531C140.52 21.1024 140.16 22.126 139.441 22.929C138.686 23.7544 137.685 24.1663 136.439 24.1663C135.234 24.1663 134.276 23.7717 133.563 22.979C132.851 22.1881 132.494 21.1903 132.494 19.9875C132.494 18.7296 132.861 17.6974 133.598 16.8961C134.335 16.0949 135.326 15.6934 136.572 15.6934C137.777 15.6934 138.742 16.088 139.475 16.8789C140.171 17.6475 140.52 18.64 140.52 19.8531ZM138.629 19.9117C138.629 19.1621 138.465 18.5194 138.14 17.9835C137.76 17.3356 137.214 17.0116 136.508 17.0116C135.774 17.0116 135.218 17.3356 134.837 17.9835C134.511 18.5194 134.349 19.1725 134.349 19.9445C134.349 20.6941 134.512 21.3368 134.837 21.8727C135.232 22.5206 135.781 22.8446 136.491 22.8446C137.186 22.8446 137.73 22.5155 138.123 21.8555C138.462 21.3092 138.629 20.6613 138.629 19.9117Z" fill="white"/>
<path d="M149.337 23.9819H147.701L147.565 23.0462H147.515C146.955 23.7923 146.157 24.1663 145.121 24.1663C144.348 24.1663 143.722 23.9199 143.251 23.4305C142.823 22.9859 142.609 22.4327 142.609 21.7762C142.609 20.7837 143.027 20.0272 143.866 19.5033C144.704 18.9795 145.883 18.7227 147.4 18.7348V18.5831C147.4 17.513 146.834 16.9789 145.698 16.9789C144.89 16.9789 144.177 17.1805 143.562 17.5803L143.192 16.3947C143.953 15.9277 144.894 15.6934 146.003 15.6934C148.144 15.6934 149.219 16.8134 149.219 19.0536V22.045C149.219 22.8567 149.259 23.5028 149.337 23.9819ZM147.446 21.1903V19.9376C145.436 19.9031 144.431 20.4494 144.431 21.5746C144.431 21.9985 144.546 22.3156 144.781 22.5275C145.015 22.7395 145.314 22.8446 145.671 22.8446C146.07 22.8446 146.444 22.7188 146.785 22.4689C147.127 22.2174 147.338 21.8986 147.416 21.5074C147.435 21.4195 147.446 21.3127 147.446 21.1903Z" fill="white"/>
<path d="M159.688 23.9832H158.071L157.986 22.6787H157.936C157.419 23.6713 156.54 24.1676 155.304 24.1676C154.316 24.1676 153.494 23.7833 152.842 23.0147C152.19 22.2462 151.865 21.2485 151.865 20.0233C151.865 18.7085 152.218 17.6436 152.927 16.8302C153.614 16.072 154.455 15.6929 155.457 15.6929C156.557 15.6929 157.327 16.06 157.765 16.7958H157.8V12.1328H159.624V21.7947C159.624 22.5857 159.645 23.3146 159.688 23.9832ZM157.8 20.5575V19.2031C157.8 18.9687 157.783 18.7792 157.75 18.6344C157.647 18.2002 157.426 17.8348 157.091 17.5402C156.752 17.2455 156.343 17.0973 155.872 17.0973C155.192 17.0973 154.661 17.3644 154.269 17.9003C153.882 18.4362 153.685 19.1203 153.685 19.9561C153.685 20.7591 153.871 21.4105 154.245 21.9119C154.64 22.4461 155.172 22.7132 155.837 22.7132C156.435 22.7132 156.914 22.4909 157.277 22.0446C157.628 21.6327 157.8 21.1365 157.8 20.5575Z" fill="white"/>
<path d="M175.269 19.8531C175.269 21.1024 174.909 22.126 174.19 22.929C173.435 23.7544 172.437 24.1663 171.188 24.1663C169.986 24.1663 169.029 23.7717 168.312 22.979C167.6 22.1881 167.243 21.1903 167.243 19.9875C167.243 18.7296 167.61 17.6974 168.347 16.8961C169.084 16.0949 170.075 15.6934 171.325 15.6934C172.526 15.6934 173.494 16.088 174.225 16.8789C174.92 17.6475 175.269 18.64 175.269 19.8531ZM173.381 19.9117C173.381 19.1621 173.218 18.5194 172.893 17.9835C172.509 17.3356 171.966 17.0116 171.257 17.0116C170.527 17.0116 169.971 17.3356 169.587 17.9835C169.26 18.5194 169.098 19.1725 169.098 19.9445C169.098 20.6941 169.261 21.3368 169.587 21.8727C169.981 22.5206 170.53 22.8446 171.24 22.8446C171.935 22.8446 172.483 22.5155 172.876 21.8555C173.211 21.3092 173.381 20.6613 173.381 19.9117Z" fill="white"/>
<path d="M185.065 23.9832H183.245V19.3306C183.245 17.8969 182.696 17.18 181.592 17.18C181.051 17.18 180.615 17.3765 180.278 17.7711C179.94 18.1657 179.772 18.6309 179.772 19.1634V23.9814H177.948V18.1812C177.948 17.4678 177.927 16.6941 177.884 15.8566H179.483L179.568 17.1266H179.619C179.833 16.732 180.149 16.4063 180.563 16.1461C181.058 15.8428 181.609 15.6895 182.216 15.6895C182.979 15.6895 183.615 15.9341 184.121 16.4253C184.752 17.0266 185.065 17.9244 185.065 19.1169V23.9832V23.9832Z" fill="white"/>
<path d="M197.325 17.2136H195.319V21.1597C195.319 22.1626 195.675 22.6641 196.381 22.6641C196.708 22.6641 196.979 22.6365 197.193 22.5796L197.24 23.9496C196.88 24.084 196.407 24.1512 195.825 24.1512C195.105 24.1512 194.545 23.9341 194.14 23.4998C193.733 23.0656 193.532 22.3349 193.532 21.3096V17.2136H192.334V15.8609H193.532V14.3721L195.317 13.8379V15.8592H197.323V17.2136H197.325Z" fill="white"/>
<path d="M206.971 23.9832H205.148V19.365C205.148 17.9089 204.599 17.18 203.498 17.18C202.653 17.18 202.076 17.6022 201.76 18.4466C201.706 18.6241 201.675 18.8412 201.675 19.0962V23.9815H199.854V12.1328H201.675V17.0284H201.709C202.283 16.1375 203.105 15.6929 204.171 15.6929C204.925 15.6929 205.549 15.9376 206.045 16.4287C206.662 17.0405 206.971 17.9503 206.971 19.1531V23.9832V23.9832Z" fill="white"/>
<path d="M216.92 19.5379C216.92 19.8619 216.896 20.1341 216.853 20.3564H211.389C211.413 21.1594 211.674 21.7712 212.18 22.1951C212.642 22.5742 213.238 22.7637 213.969 22.7637C214.777 22.7637 215.514 22.6362 216.178 22.3794L216.463 23.6339C215.686 23.9682 214.772 24.1354 213.713 24.1354C212.444 24.1354 211.444 23.7649 210.721 23.0239C209.995 22.2829 209.635 21.2887 209.635 20.0411C209.635 18.8159 209.97 17.7958 210.647 16.9824C211.352 16.1139 212.307 15.6797 213.511 15.6797C214.69 15.6797 215.585 16.1139 216.19 16.9824C216.679 17.6717 216.92 18.5247 216.92 19.5379ZM215.182 19.0709C215.196 18.535 215.076 18.0732 214.829 17.6838C214.513 17.1823 214.031 16.9307 213.379 16.9307C212.785 16.9307 212.3 17.1754 211.929 17.6665C211.627 18.0577 211.448 18.5247 211.389 19.0709H215.182Z" fill="white"/>
</svg>
