<svg width="359" height="460" viewBox="0 0 359 460" fill="none" xmlns="http://www.w3.org/2000/svg">
<circle cx="179.501" cy="280.26" r="134.603" transform="rotate(25.5552 179.501 280.26)" fill="#BCC015"/>
<path d="M256.451 368.458L123.871 384.977C109.711 386.744 96.8038 376.718 95.0403 362.585L56.1039 49.9879C54.3448 35.8547 64.3993 22.9691 78.5589 21.2019L211.139 4.68276C225.299 2.92 238.207 12.9459 239.97 27.0741L278.906 339.672C280.666 353.809 270.616 366.694 256.451 368.458Z" fill="#353535"/>
<path d="M255.26 336.95L118.338 354.004C110.484 354.982 103.326 349.394 102.345 341.523L65.5444 46.1721C64.5634 38.3009 70.1328 31.1248 77.9869 30.1463L214.909 13.0925C222.763 12.1141 229.921 17.7023 230.902 25.5735L267.703 320.924C268.684 328.795 263.11 335.972 255.26 336.95Z" fill="#F8F8F8"/>
<path d="M217.264 40.5646L187.041 44.6257C184.06 45.0262 181.275 42.7805 180.853 39.6362L179.882 32.4072C179.459 29.2629 181.552 26.3617 184.533 25.9613L214.756 21.9002C217.736 21.4997 220.521 23.7454 220.943 26.8897L221.914 34.114C222.337 37.263 220.244 40.1642 217.264 40.5646Z" fill="#CBD212"/>
<path d="M189.975 40.4299L189.69 40.4682C187.705 40.7349 185.893 39.4123 185.639 37.5203L185.056 33.1823C184.801 31.286 186.205 29.5356 188.185 29.2695L188.47 29.2312C190.455 28.9645 192.267 30.2871 192.521 32.1791L193.104 36.5171C193.363 38.4085 191.96 40.1632 189.975 40.4299Z" fill="#353535"/>
<path d="M114.239 122.732L113.523 117.403L119.031 116.663L118.73 114.421L113.222 115.161L112.734 111.53L118.767 110.719L118.453 108.383L109.587 109.574L111.406 123.113L114.239 122.732ZM122.002 121.689L124.742 121.321L123.965 115.542C123.771 114.097 124.471 113.124 125.86 112.937C126.263 112.883 126.647 112.898 126.894 112.961L126.569 110.54C126.363 110.501 126.077 110.501 125.758 110.544C124.538 110.708 123.74 111.522 123.564 112.844L123.508 112.852L123.26 111.004L120.614 111.359L122.002 121.689ZM133.776 120.289C136.91 119.868 138.602 117.606 138.152 114.256C137.707 110.944 135.455 109.184 132.34 109.602C129.234 110.019 127.519 112.323 127.963 115.625C128.411 118.965 130.642 120.71 133.776 120.289ZM133.492 118.178C132.047 118.372 131.016 117.307 130.74 115.252C130.467 113.226 131.177 111.898 132.622 111.704C134.058 111.511 135.092 112.595 135.365 114.631C135.641 116.685 134.937 117.984 133.492 118.178ZM140.567 119.195L143.306 118.827L142.472 112.615C142.314 111.443 142.954 110.516 144.033 110.371C145.093 110.229 145.821 110.809 145.969 111.916L146.834 118.353L149.48 117.997L148.641 111.748C148.483 110.576 149.099 109.69 150.178 109.545C151.295 109.395 151.994 109.98 152.157 111.19L153.008 117.523L155.748 117.155L154.805 110.137C154.525 108.054 152.979 106.857 150.952 107.13C149.451 107.331 148.322 108.314 148.027 109.672L147.971 109.68C147.442 108.375 146.289 107.756 144.807 107.956C143.428 108.141 142.406 109.071 142.133 110.378L142.077 110.386L141.825 108.509L139.179 108.865L140.567 119.195ZM159.575 116.755C160.42 116.642 160.995 115.877 160.883 115.042C160.769 114.197 160.014 113.621 159.169 113.734C158.325 113.848 157.748 114.603 157.862 115.448C157.974 116.283 158.731 116.869 159.575 116.755ZM158.674 110.047C159.518 109.933 160.094 109.168 159.981 108.333C159.868 107.489 159.112 106.912 158.268 107.026C157.423 107.139 156.847 107.895 156.96 108.739C157.072 109.574 157.829 110.16 158.674 110.047Z" fill="black"/>
<path d="M133.241 236.387L131.736 225.184L135.705 224.651L135.391 222.315L124.629 223.761L124.943 226.097L128.902 225.565L130.408 236.768L133.241 236.387ZM141.722 235.429C144.856 235.008 146.548 232.746 146.098 229.396C145.653 226.084 143.401 224.324 140.286 224.742C137.18 225.159 135.465 227.463 135.908 230.765C136.357 234.106 138.588 235.85 141.722 235.429ZM141.438 233.318C139.993 233.512 138.962 232.447 138.686 230.392C138.413 228.366 139.123 227.038 140.568 226.844C142.004 226.651 143.038 227.735 143.311 229.771C143.587 231.825 142.883 233.124 141.438 233.318Z" fill="black"/>
<path d="M115.051 150.226L116.87 163.765L122.086 163.065C126.149 162.519 128.202 159.673 127.625 155.376C127.048 151.079 124.33 148.98 120.267 149.526L115.051 150.226ZM118.198 152.182L120.243 151.907C122.739 151.572 124.356 152.94 124.737 155.774C125.13 158.701 123.967 160.424 121.433 160.764L119.388 161.039L118.198 152.182ZM139.048 158.397L133.127 159.193L131.623 148L128.79 148.38L130.609 161.919L139.363 160.743L139.048 158.397ZM150.156 159.293L153.168 158.888L146.638 145.982L143.308 146.43L140.426 160.6L143.335 160.209L143.926 156.787L148.682 156.148L150.156 159.293ZM145.241 148.806L145.307 148.797L147.788 154.109L144.25 154.584L145.241 148.806Z" fill="#979797"/>
<path d="M139.267 276.966L138.587 271.908L142.167 262.792L139.127 263.201L136.864 269.389L136.798 269.398L132.991 264.025L129.904 264.44L135.754 272.289L136.433 277.346L139.267 276.966ZM143.793 262.574L145.613 276.113L150.829 275.412C154.892 274.866 156.945 272.021 156.368 267.723C155.791 263.426 153.073 261.327 149.01 261.873L143.793 262.574ZM146.941 264.529L148.986 264.255C151.482 263.919 153.099 265.288 153.479 268.121C153.873 271.048 152.71 272.771 150.176 273.112L148.131 273.386L146.941 264.529ZM168.006 270.716L161.87 271.54L161.411 268.125L167.2 267.347L166.908 265.17L161.119 265.948L160.68 262.683L166.816 261.859L166.502 259.522L157.533 260.728L159.352 274.267L168.321 273.061L168.006 270.716Z" fill="#979797"/>
</svg>
