<svg width="74" height="73" viewBox="0 0 74 73" fill="none" xmlns="http://www.w3.org/2000/svg">
<rect x="0.904297" width="72.6601" height="72.6601" rx="36.3301" fill="#7A7A7A" fill-opacity="0.2"/>
<path fill-rule="evenodd" clip-rule="evenodd" d="M55.0029 21.4062C56.9481 21.9299 58.4818 23.4636 59.0055 25.4088C59.9781 28.9624 59.9407 36.3691 59.9407 36.3691C59.9407 36.3691 59.9407 43.7383 59.0055 47.292C58.4818 49.2372 56.9481 50.7709 55.0029 51.2946C51.4493 52.2297 37.2345 52.2297 37.2345 52.2297C37.2345 52.2297 23.0572 52.2297 19.4661 51.2572C17.5209 50.7335 15.9872 49.1998 15.4635 47.2546C14.5283 43.7383 14.5283 36.3317 14.5283 36.3317C14.5283 36.3317 14.5283 28.9624 15.4635 25.4088C15.9872 23.4636 17.5583 21.8925 19.4661 21.3688C23.0198 20.4336 37.2345 20.4336 37.2345 20.4336C37.2345 20.4336 51.4493 20.4336 55.0029 21.4062ZM44.5294 36.3337L32.7087 43.1418V29.5256L44.5294 36.3337Z" fill="white"/>
</svg>
