<svg width="245" height="73" viewBox="0 0 245 73" fill="none" xmlns="http://www.w3.org/2000/svg">
<path d="M235.525 0H9.05865C4.05569 0 0 4.04855 0 9.0427V63.2989C0 68.293 4.05569 72.3416 9.05865 72.3416H235.525C240.528 72.3416 244.583 68.293 244.583 63.2989V9.0427C244.583 4.04855 240.528 0 235.525 0Z" fill="black"/>
<path d="M235.525 1.44683C237.543 1.44683 239.478 2.24711 240.905 3.67161C242.332 5.09611 243.134 7.02815 243.134 9.0427V63.2989C243.134 65.3134 242.332 67.2455 240.905 68.67C239.478 70.0945 237.543 70.8948 235.525 70.8948H9.05865C7.04054 70.8948 5.1051 70.0945 3.67808 68.67C2.25107 67.2455 1.44938 65.3134 1.44938 63.2989V9.0427C1.44938 7.02815 2.25107 5.09611 3.67808 3.67161C5.1051 2.24711 7.04054 1.44683 9.05865 1.44683H235.525ZM235.525 0H9.05865C6.65614 0 4.35204 0.95271 2.65322 2.64854C0.95439 4.34438 0 6.64443 0 9.0427V63.2989C0 65.6972 0.95439 67.9972 2.65322 69.693C4.35204 71.3889 6.65614 72.3416 9.05865 72.3416H235.525C237.927 72.3416 240.231 71.3889 241.93 69.693C243.629 67.9972 244.583 65.6972 244.583 63.2989V9.0427C244.583 6.64443 243.629 4.34438 241.93 2.64854C240.231 0.95271 237.927 0 235.525 0Z" fill="#A6A6A6"/>
<path d="M123.451 39.3359C121.93 39.3431 120.445 39.7999 119.183 40.6489C117.922 41.4978 116.941 42.7007 116.363 44.1058C115.786 45.5109 115.639 47.0552 115.94 48.5438C116.241 50.0324 116.977 51.3986 118.056 52.4699C119.134 53.5413 120.506 54.2697 121.999 54.5634C123.491 54.857 125.038 54.7027 126.442 54.1199C127.847 53.5371 129.048 52.5519 129.892 51.2887C130.737 50.0255 131.187 48.5409 131.187 47.0222C131.202 46.0057 131.012 44.9966 130.628 44.055C130.244 43.1135 129.674 42.2586 128.952 41.5415C128.23 40.8243 127.371 40.2594 126.426 39.8805C125.481 39.5016 124.47 39.3164 123.451 39.3359V39.3359ZM123.451 51.6883C122.516 51.7536 121.582 51.5364 120.772 51.065C119.961 50.5936 119.312 49.8898 118.908 49.045C118.503 48.2002 118.363 47.2535 118.505 46.328C118.647 45.4025 119.064 44.5411 119.703 43.8555C120.342 43.17 121.172 42.6922 122.087 42.4842C123.001 42.2762 123.957 42.3476 124.83 42.6891C125.704 43.0307 126.454 43.6266 126.983 44.3993C127.513 45.1721 127.797 46.086 127.799 47.0222C127.829 47.6155 127.739 48.2085 127.534 48.7664C127.33 49.3243 127.016 49.8358 126.611 50.2707C126.206 50.7056 125.718 51.055 125.175 51.2985C124.632 51.542 124.046 51.6745 123.451 51.6883ZM106.584 39.3359C105.062 39.3395 103.575 39.7933 102.311 40.6401C101.047 41.4868 100.063 42.6885 99.4833 44.0933C98.9033 45.4981 98.7534 47.043 99.0525 48.5328C99.3517 50.0226 100.086 51.3905 101.164 52.4636C102.242 53.5368 103.614 54.267 105.107 54.5621C106.6 54.8573 108.147 54.704 109.553 54.1217C110.959 53.5394 112.16 52.5542 113.006 51.2906C113.851 50.027 114.302 48.5417 114.302 47.0222C114.317 46.0057 114.127 44.9966 113.743 44.055C113.359 43.1135 112.789 42.2586 112.067 41.5415C111.345 40.8243 110.486 40.2594 109.541 39.8805C108.596 39.5016 107.584 39.3164 106.566 39.3359H106.584ZM106.584 51.6883C105.648 51.7573 104.713 51.5433 103.9 51.0744C103.088 50.6054 102.435 49.9031 102.028 49.0588C101.621 48.2146 101.478 47.2676 101.618 46.341C101.757 45.4145 102.173 44.5513 102.811 43.864C103.449 43.1766 104.279 42.6969 105.194 42.4872C106.109 42.2775 107.066 42.3476 107.94 42.6884C108.814 43.0292 109.566 43.6248 110.096 44.3978C110.627 45.1708 110.912 46.0853 110.914 47.0222C110.943 47.6155 110.853 48.2085 110.649 48.7664C110.445 49.3243 110.131 49.8358 109.726 50.2707C109.321 50.7056 108.832 51.055 108.29 51.2985C107.747 51.542 107.161 51.6745 106.566 51.6883H106.584ZM86.492 41.7051V44.9605H94.3187C94.196 46.4938 93.5575 47.9406 92.507 49.0659C91.7239 49.8621 90.7826 50.4858 89.7436 50.897C88.7045 51.3081 87.5907 51.4976 86.4739 51.4532C84.1675 51.4532 81.9556 50.5386 80.3247 48.9106C78.6938 47.2826 77.7776 45.0745 77.7776 42.7722C77.7776 40.4698 78.6938 38.2618 80.3247 36.6338C81.9556 35.0058 84.1675 34.0912 86.4739 34.0912C88.6802 34.0553 90.8108 34.8943 92.3983 36.4242L94.6992 34.1273C93.6275 33.0441 92.3489 32.1866 90.9391 31.6056C89.5294 31.0247 88.0171 30.7322 86.492 30.7454C84.8814 30.6828 83.2747 30.9454 81.7682 31.5176C80.2616 32.0897 78.8863 32.9595 77.7246 34.0749C76.5629 35.1903 75.6387 36.5283 75.0075 38.0088C74.3762 39.4893 74.0508 41.0818 74.0508 42.6908C74.0508 44.2998 74.3762 45.8923 75.0075 47.3727C75.6387 48.8532 76.5629 50.1912 77.7246 51.3067C78.8863 52.4221 80.2616 53.2919 81.7682 53.864C83.2747 54.4361 84.8814 54.6988 86.492 54.6362C88.0428 54.7061 89.5906 54.4437 91.0312 53.8666C92.4719 53.2895 93.772 52.411 94.8441 51.2904C96.7422 49.2086 97.7556 46.472 97.6704 43.6583C97.6762 42.9729 97.6156 42.2885 97.4892 41.6147L86.492 41.7051ZM168.582 44.2371C168.109 42.8495 167.225 41.6378 166.048 40.7626C164.87 39.8874 163.454 39.3899 161.987 39.3359C160.996 39.334 160.015 39.535 159.105 39.9265C158.195 40.318 157.375 40.8917 156.695 41.612C156.016 42.3324 155.492 43.1842 155.156 44.1148C154.82 45.0454 154.678 46.0349 154.74 47.0222C154.718 48.033 154.9 49.0379 155.276 49.9768C155.652 50.9157 156.213 51.7694 156.927 52.4869C157.64 53.2043 158.492 53.7708 159.429 54.1525C160.367 54.5343 161.373 54.7234 162.385 54.7085C163.653 54.7153 164.902 54.4083 166.021 53.815C167.14 53.2216 168.095 52.3604 168.799 51.3085L166.172 49.4999C165.78 50.1524 165.225 50.6921 164.561 51.0662C163.897 51.4403 163.148 51.6359 162.385 51.634C161.601 51.6639 160.825 51.4573 160.159 51.0413C159.494 50.6252 158.969 50.0188 158.653 49.301L168.962 45.0509L168.582 44.2371ZM158.073 46.8052C158.037 46.2458 158.112 45.6847 158.295 45.1548C158.479 44.6249 158.766 44.1368 159.141 43.7191C159.515 43.3014 159.969 42.9625 160.477 42.7223C160.984 42.4821 161.534 42.3453 162.096 42.32C162.68 42.2816 163.263 42.4154 163.772 42.7047C164.281 42.9941 164.693 43.4263 164.958 43.9477L158.073 46.8052ZM149.703 54.2564H153.091V31.6496H149.703V54.2564ZM144.159 41.0541H144.033C143.522 40.4842 142.896 40.0285 142.197 39.7168C141.498 39.4051 140.74 39.2445 139.974 39.2455C137.994 39.3414 136.127 40.1939 134.76 41.6266C133.393 43.0593 132.63 44.9621 132.63 46.9409C132.63 48.9196 133.393 50.8224 134.76 52.2551C136.127 53.6877 137.994 54.5403 139.974 54.6362C140.742 54.6491 141.503 54.4938 142.204 54.1814C142.906 53.8689 143.53 53.4068 144.033 52.8276H144.141V53.9309C144.141 56.8788 142.565 58.4522 140.029 58.4522C139.184 58.4325 138.364 58.1622 137.674 57.6759C136.983 57.1896 136.453 56.5092 136.152 55.7213L133.198 56.9511C133.754 58.3009 134.701 59.4542 135.918 60.263C137.135 61.0718 138.567 61.4993 140.029 61.4906C143.996 61.4906 147.276 59.1575 147.276 53.4787V39.7881H144.159V41.0541ZM140.282 51.6883C139.114 51.5855 138.026 51.0494 137.234 50.1857C136.441 49.322 136.002 48.1934 136.002 47.0222C136.002 45.8511 136.441 44.7225 137.234 43.8588C138.026 42.9951 139.114 42.459 140.282 42.3562C140.862 42.3859 141.429 42.531 141.952 42.7831C142.474 43.0351 142.941 43.389 143.324 43.8238C143.707 44.2586 143.999 44.7656 144.183 45.3149C144.367 45.8643 144.439 46.4447 144.395 47.0222C144.444 47.6022 144.375 48.1862 144.192 48.7388C144.009 49.2914 143.716 49.8013 143.33 50.2374C142.943 50.6736 142.473 51.0271 141.946 51.2764C141.419 51.5258 140.847 51.6659 140.264 51.6883H140.282ZM184.452 31.6496H176.354V54.2564H179.742V45.6839H184.47C185.436 45.7532 186.405 45.6231 187.318 45.3018C188.231 44.9805 189.068 44.475 189.777 43.8166C190.486 43.1582 191.051 42.3612 191.437 41.4751C191.824 40.5891 192.023 39.6331 192.023 38.6668C192.023 37.7004 191.824 36.7444 191.437 35.8584C191.051 34.9724 190.486 34.1753 189.777 33.517C189.068 32.8586 188.231 32.353 187.318 32.0317C186.405 31.7105 185.436 31.5804 184.47 31.6496H184.452ZM184.452 42.5009H179.724V34.7965H184.525C185.555 34.7965 186.544 35.2052 187.273 35.9327C188.001 36.6602 188.411 37.647 188.411 38.6758C188.411 39.7047 188.001 40.6914 187.273 41.4189C186.544 42.1464 185.555 42.5551 184.525 42.5551L184.452 42.5009ZM205.341 39.2455C204.108 39.1719 202.88 39.4596 201.808 40.0733C200.736 40.687 199.868 41.5999 199.308 42.6998L202.316 43.9477C202.612 43.4022 203.061 42.9544 203.608 42.659C204.155 42.3636 204.776 42.2333 205.396 42.2839C205.826 42.2337 206.262 42.2696 206.678 42.3893C207.094 42.5091 207.482 42.7104 207.819 42.9814C208.156 43.2525 208.436 43.5879 208.642 43.968C208.848 44.3482 208.977 44.7655 209.019 45.1956V45.4307C207.931 44.8556 206.718 44.5574 205.486 44.5626C202.243 44.5626 198.964 46.3712 198.964 49.6446C198.996 50.3426 199.168 51.0271 199.47 51.6576C199.771 52.2881 200.196 52.8519 200.72 53.3156C201.244 53.7793 201.855 54.1334 202.518 54.3571C203.181 54.5809 203.883 54.6696 204.581 54.6181C205.434 54.6793 206.288 54.51 207.053 54.1282C207.818 53.7463 208.466 53.1659 208.929 52.4479H209.037V54.2564H212.299V45.5573C212.299 41.5966 209.291 39.2998 205.432 39.2998L205.341 39.2455ZM204.925 51.634C203.82 51.634 202.28 51.0734 202.28 49.717C202.28 47.9084 204.2 47.3116 205.903 47.3116C206.979 47.2851 208.043 47.5474 208.983 48.0712C208.87 49.0503 208.406 49.9556 207.677 50.6203C206.948 51.285 206.002 51.6643 205.015 51.6883L204.925 51.634ZM224.183 39.7881L220.306 49.5904H220.198L216.176 39.7881H212.552L218.585 53.4968L215.143 61.1108H218.676L227.952 39.7881H224.183ZM193.728 54.2564H197.116V31.6496H193.728V54.2564Z" fill="white"/>
<path d="M85.7994 18.6326C85.8302 19.296 85.7256 19.9587 85.492 20.5804C85.2585 21.2022 84.9007 21.7701 84.4406 22.2497C83.9268 22.7825 83.3063 23.2012 82.6195 23.4785C81.9328 23.7559 81.1952 23.8856 80.4548 23.8593C79.3315 23.8505 78.2358 23.511 77.3049 22.8833C76.3741 22.2556 75.6495 21.3677 75.222 20.3307C74.7944 19.2937 74.683 18.1539 74.9016 17.0539C75.1202 15.954 75.6591 14.943 76.4509 14.1475C76.9712 13.6172 77.595 13.1991 78.2837 12.9191C78.9724 12.6392 79.7114 12.5032 80.4548 12.5198C81.2207 12.5172 81.9791 12.6711 82.6832 12.9719C83.3388 13.2359 83.9224 13.6511 84.3862 14.1836L83.426 15.1422C83.0644 14.7128 82.6077 14.3733 82.0921 14.1504C81.5764 13.9276 81.0159 13.8275 80.4548 13.8581C79.8889 13.8553 79.3282 13.9667 78.8065 14.1854C78.2847 14.4042 77.8126 14.7259 77.4184 15.1312C77.0242 15.5365 76.7161 16.0171 76.5124 16.5442C76.3088 17.0713 76.2139 17.634 76.2335 18.1986C76.2216 19.0416 76.4601 19.8693 76.9189 20.5771C77.3777 21.285 78.0362 21.8414 78.8114 22.176C79.5866 22.5107 80.4437 22.6087 81.2747 22.4577C82.1056 22.3066 82.8731 21.9133 83.4804 21.3274C84.0379 20.7243 84.3594 19.9411 84.3862 19.1209H80.4548V17.8188H85.7269C85.7752 18.0874 85.7995 18.3597 85.7994 18.6326ZM94.0971 14.1113H89.2054V17.5475H93.6623V18.8497H89.2054V22.2859H94.0971V23.6242H87.7561V12.773H94.0971V14.1113ZM100.04 23.6242H98.6446V14.1113H95.6008V12.773H103.156V14.1113H100.04V23.6242ZM108.482 23.6242V12.773H109.877V23.6242H108.482ZM116.073 23.6242H114.678V14.1113H111.635V12.773H119.099V14.1113H116.073V23.6242ZM133.249 22.2135C132.189 23.2649 130.756 23.8551 129.263 23.8551C127.769 23.8551 126.336 23.2649 125.277 22.2135C124.248 21.1257 123.674 19.686 123.674 18.1895C123.674 16.6931 124.248 15.2533 125.277 14.1655C125.799 13.6406 126.42 13.224 127.104 12.9397C127.788 12.6554 128.522 12.509 129.263 12.509C130.004 12.509 130.737 12.6554 131.422 12.9397C132.106 13.224 132.727 13.6406 133.249 14.1655C134.282 15.2513 134.858 16.6918 134.858 18.1895C134.858 19.6873 134.282 21.1278 133.249 22.2135ZM126.31 21.3093C127.094 22.089 128.156 22.5267 129.263 22.5267C130.37 22.5267 131.432 22.089 132.216 21.3093C132.99 20.4575 133.419 19.3486 133.419 18.1986C133.419 17.0486 132.99 15.9397 132.216 15.0879C131.432 14.3082 130.37 13.8704 129.263 13.8704C128.156 13.8704 127.094 14.3082 126.31 15.0879C125.536 15.9397 125.107 17.0486 125.107 18.1986C125.107 19.3486 125.536 20.4575 126.31 21.3093ZM136.818 23.6242V12.773H138.521L143.811 21.2188V12.773H145.206V23.6242H143.757L138.231 14.7804V23.6242H136.818Z" fill="white"/>
<path fill-rule="evenodd" clip-rule="evenodd" d="M129.263 12.6898C128.546 12.6898 127.836 12.8315 127.174 13.1066C126.512 13.3815 125.912 13.7841 125.407 14.2914C124.41 15.3454 123.855 16.74 123.855 18.1895C123.855 19.6389 124.41 21.0333 125.407 22.0873C126.432 23.1037 127.818 23.6742 129.263 23.6742C130.708 23.6742 132.094 23.1037 133.119 22.0871C134.119 21.0352 134.677 19.6401 134.677 18.1895C134.677 16.7388 134.119 15.3435 133.119 14.2916C132.614 13.7842 132.013 13.3815 131.352 13.1066C130.69 12.8315 129.98 12.6898 129.263 12.6898ZM127.034 12.7727C127.741 12.4792 128.498 12.3281 129.263 12.3281C130.028 12.3281 130.785 12.4792 131.491 12.7727C132.197 13.0662 132.838 13.4963 133.377 14.0381L133.38 14.0409C134.446 15.1603 135.04 16.6454 135.04 18.1895C135.04 19.7337 134.445 21.2188 133.38 22.3381L133.376 22.3418C132.283 23.4269 130.804 24.036 129.263 24.036C127.721 24.036 126.242 23.4269 125.149 22.3418L125.145 22.3378C124.084 21.2164 123.493 19.7322 123.493 18.1895C123.493 16.6469 124.084 15.1627 125.145 14.0413L125.148 14.0381C125.687 13.4962 126.328 13.0662 127.034 12.7727ZM80.4508 12.7006C79.7321 12.6846 79.0178 12.816 78.3521 13.0866C77.6863 13.3573 77.0833 13.7614 76.5803 14.274L76.5794 14.2749C75.8128 15.0452 75.291 16.0241 75.0793 17.0891C74.8677 18.1541 74.9755 19.2578 75.3895 20.2619C75.8034 21.2659 76.505 22.1257 77.4063 22.7335C78.3076 23.3412 79.3686 23.67 80.4562 23.6785L80.4612 23.6785C81.1762 23.7039 81.8884 23.5787 82.5516 23.3109C83.2147 23.0431 83.8138 22.6389 84.3099 22.1245C84.753 21.6626 85.0975 21.1157 85.3224 20.5169C85.5474 19.9181 85.6481 19.2799 85.6184 18.641L85.7994 18.6326L85.6182 18.6326C85.6183 18.4207 85.6031 18.2092 85.5728 17.9996H80.636V18.9401H84.5734L84.5673 19.1268C84.5391 19.9904 84.2005 20.815 83.6135 21.45L83.6065 21.4576C82.9735 22.0684 82.1733 22.4782 81.3071 22.6356C80.441 22.793 79.5476 22.6909 78.7395 22.342C77.9315 21.9932 77.245 21.4132 76.7668 20.6754C76.2893 19.9387 76.0408 19.0777 76.0522 18.2004C76.0325 17.613 76.1315 17.0276 76.3434 16.4791C76.5558 15.9293 76.8772 15.428 77.2884 15.0052C77.6996 14.5824 78.1921 14.2469 78.7363 14.0187C79.2789 13.7912 79.8618 13.6751 80.4503 13.6772C81.0376 13.646 81.6242 13.7512 82.164 13.9844C82.6451 14.1923 83.0773 14.4969 83.434 14.8785L84.1363 14.1774C83.711 13.7262 83.1923 13.3719 82.6154 13.1396L82.6119 13.1382C81.9305 12.8471 81.1966 12.6982 80.4554 12.7006L80.4508 12.7006ZM85.9806 18.6285C86.0119 19.3149 85.9034 20.0005 85.6617 20.644C85.4195 21.2887 85.0486 21.8775 84.5714 22.3748C84.04 22.9259 83.3978 23.3593 82.6875 23.6462C81.9779 23.9328 81.2158 24.067 80.4509 24.0401C79.2928 24.0306 78.1632 23.6804 77.2035 23.0332C76.2431 22.3856 75.4955 21.4694 75.0544 20.3995C74.6133 19.3296 74.4984 18.1536 74.7239 17.0187C74.9494 15.8841 75.5053 14.8411 76.3219 14.0204C76.8595 13.4727 77.5039 13.0409 78.2154 12.7516C78.9263 12.4626 79.6891 12.3222 80.4565 12.3389C81.2457 12.3366 82.0271 12.4952 82.7528 12.8049C83.4342 13.0796 84.0408 13.5114 84.523 14.065L84.6338 14.1922L83.4145 15.4095L83.2873 15.2585C82.9438 14.8506 82.51 14.5281 82.0201 14.3164C81.5302 14.1047 80.9977 14.0096 80.4647 14.0387L80.4539 14.0393C79.9124 14.0366 79.3759 14.1428 78.8766 14.3522C78.3774 14.5615 77.9256 14.8693 77.5484 15.2572C77.1712 15.645 76.8763 16.1049 76.6815 16.6093C76.4866 17.1137 76.3958 17.6521 76.4145 18.1923L76.4148 18.2011C76.4035 19.0084 76.6316 19.801 77.071 20.4789C77.5104 21.1567 78.141 21.6895 78.8833 22.01C79.6257 22.3305 80.4465 22.4244 81.2422 22.2798C82.0362 22.1354 82.7698 21.7601 83.3507 21.2009C83.8342 20.6763 84.1294 20.0084 84.1936 19.3018H80.2736V17.6379H85.8785L85.9052 17.7868C85.9552 18.0646 85.9804 18.3463 85.9806 18.6285ZM87.5749 12.5921H94.2783V14.2921H89.3866V17.3667H93.8435V19.0305H89.3866V22.105H94.2783V23.8051H87.5749V12.5921ZM87.9372 12.9538V23.4434H93.9159V22.4667H89.0243V18.6688H93.4811V17.7284H89.0243V13.9304H93.9159V12.9538H87.9372ZM95.4197 12.5921H103.337V14.2921H100.221V23.8051H98.4634V14.2921H95.4197V12.5921ZM95.782 12.9538V13.9304H98.8257V23.4434H99.8584V13.9304H102.975V12.9538H95.782ZM108.301 12.5921H110.058V23.8051H108.301V12.5921ZM108.663 12.9538V23.4434H109.696V12.9538H108.663ZM111.453 12.5921H119.28V14.2921H116.255V23.8051H114.497V14.2921H111.453V12.5921ZM111.816 12.9538V13.9304H114.86V23.4434H115.892V13.9304H118.918V12.9538H111.816ZM136.637 12.5921H138.621L143.63 20.5885V12.5921H145.387V23.8051H143.656L138.412 15.4121V23.8051H136.637V12.5921ZM136.999 12.9538V23.4434H138.05V14.1488L143.857 23.4434H145.025V12.9538H143.992V21.8492L138.42 12.9538H136.999ZM126.182 14.9597C127 14.1463 128.108 13.6896 129.263 13.6896C130.418 13.6896 131.525 14.1463 132.344 14.9597L132.35 14.9662C133.155 15.8513 133.6 17.0036 133.6 18.1986C133.6 19.3935 133.154 20.5457 132.35 21.4308L132.344 21.4376C131.526 22.251 130.418 22.7076 129.263 22.7076C128.108 22.7076 127 22.2509 126.182 21.4374L126.31 21.3093L126.175 21.4308C125.371 20.5457 124.926 19.3935 124.926 18.1986C124.926 17.0036 125.371 15.8514 126.175 14.9664L126.182 14.9597ZM126.441 21.1844C127.191 21.9283 128.205 22.3459 129.263 22.3459C130.32 22.3459 131.335 21.9283 132.085 21.1844C132.827 20.3663 133.238 19.3022 133.238 18.1986C133.238 17.095 132.827 16.0309 132.085 15.2128C131.335 14.4689 130.32 14.0513 129.263 14.0513C128.205 14.0513 127.191 14.4689 126.441 15.2128C125.699 16.0309 125.288 17.095 125.288 18.1986C125.288 19.3022 125.699 20.3663 126.441 21.1844Z" fill="white"/>
<path d="M18.9151 13.6364C18.3246 14.3437 18.0265 15.2492 18.0817 16.1683V56.1732C18.0265 57.0923 18.3246 57.9978 18.9151 58.7052L19.0419 58.8318L41.4892 36.4421V35.9176L19.0419 13.5098L18.9151 13.6364Z" fill="url(#paint0_linear_1919_492)"/>
<path d="M48.9173 43.9108L41.4893 36.4415V35.917L48.9173 28.4297L49.0804 28.5201L57.976 33.5659C60.5124 34.9947 60.5124 37.3458 57.976 38.7926L49.1166 43.8204L48.9173 43.9108Z" fill="url(#paint1_linear_1919_492)"/>
<path d="M49.1347 43.8039L41.4892 36.1719L18.915 58.7063C19.432 59.16 20.0916 59.4191 20.7796 59.4389C21.4677 59.4587 22.1411 59.238 22.6834 58.8148L49.1528 43.8039" fill="url(#paint2_linear_1919_492)"/>
<path d="M49.1342 28.5386L22.6649 13.5277C22.1225 13.1045 21.4492 12.8838 20.7611 12.9036C20.073 12.9234 19.4135 13.1825 18.8965 13.6362L41.4888 36.1706L49.1342 28.5386Z" fill="url(#paint3_linear_1919_492)"/>
<path opacity="0.2" d="M48.9173 43.6406L22.6653 58.5611C22.1423 58.9515 21.5067 59.1624 20.8536 59.1624C20.2005 59.1624 19.5649 58.9515 19.0419 58.5611L18.915 58.6877L19.0419 58.8143C19.5637 59.2075 20.1998 59.4202 20.8536 59.4202C21.5074 59.4202 22.1434 59.2075 22.6653 58.8143L49.1347 43.8034L48.9173 43.6406Z" fill="black"/>
<path opacity="0.12" d="M18.9151 58.4531C18.3246 57.7458 18.0265 56.8402 18.0817 55.9211V56.1924C18.0265 57.1115 18.3246 58.017 18.9151 58.7244L19.0419 58.5978L18.9151 58.4531ZM57.976 38.523L48.9173 43.6411L49.0804 43.8039L57.976 38.7762C58.4807 38.5395 58.914 38.1741 59.2321 37.7168C59.5502 37.2596 59.7418 36.7267 59.7877 36.1719C59.6858 36.6759 59.4695 37.15 59.1555 37.5575C58.8414 37.9651 58.4379 38.2954 57.976 38.523Z" fill="black"/>
<path opacity="0.25" d="M22.6653 13.779L57.9759 33.8176C58.4378 34.0452 58.8413 34.3755 59.1553 34.7831C59.4694 35.1907 59.6857 35.6647 59.7876 36.1687C59.7417 35.6139 59.5501 35.081 59.232 34.6238C58.9139 34.1665 58.4806 33.8011 57.9759 33.5644L22.6653 13.5258C20.1288 12.0971 18.0635 13.2907 18.0635 16.1844V16.4557C18.1178 13.5439 20.147 12.3503 22.6653 13.779V13.779Z" fill="white"/>
<defs>
<linearGradient id="paint0_linear_1919_492" x1="39.4963" y1="15.7524" x2="9.14908" y2="46.1531" gradientUnits="userSpaceOnUse">
<stop stop-color="#00A0FF"/>
<stop offset="0.01" stop-color="#00A1FF"/>
<stop offset="0.26" stop-color="#00BEFF"/>
<stop offset="0.51" stop-color="#00D2FF"/>
<stop offset="0.76" stop-color="#00DFFF"/>
<stop offset="1" stop-color="#00E3FF"/>
</linearGradient>
<linearGradient id="paint1_linear_1919_492" x1="61.2915" y1="36.1702" x2="17.4657" y2="36.1702" gradientUnits="userSpaceOnUse">
<stop stop-color="#FFE000"/>
<stop offset="0.41" stop-color="#FFBD00"/>
<stop offset="0.78" stop-color="#FFA500"/>
<stop offset="1" stop-color="#FF9C00"/>
</linearGradient>
<linearGradient id="paint2_linear_1919_492" x1="44.9858" y1="40.3315" x2="3.82348" y2="81.5483" gradientUnits="userSpaceOnUse">
<stop stop-color="#FF3A44"/>
<stop offset="1" stop-color="#C31162"/>
</linearGradient>
<linearGradient id="paint3_linear_1919_492" x1="13.2258" y1="0.325347" x2="31.6005" y2="18.7325" gradientUnits="userSpaceOnUse">
<stop stop-color="#32A071"/>
<stop offset="0.07" stop-color="#2DA771"/>
<stop offset="0.48" stop-color="#15CF74"/>
<stop offset="0.8" stop-color="#06E775"/>
<stop offset="1" stop-color="#00F076"/>
</linearGradient>
</defs>
</svg>
