<svg width="270" height="393" viewBox="0 0 270 393" fill="none" xmlns="http://www.w3.org/2000/svg">
<circle cx="134.757" cy="257.834" r="134.225" transform="rotate(-0.227319 134.757 257.834)" fill="#BCC015"/>
<path d="M208.896 326.666L91.7208 346.598C79.2066 348.73 67.3383 340.331 65.2112 327.84L18.2262 51.5642C16.1031 39.0731 24.5286 27.2229 37.0428 25.0915L154.218 5.15932C166.733 3.03186 178.601 11.4311 180.728 23.9176L227.713 300.194C229.837 312.689 221.415 324.538 208.896 326.666Z" fill="#353535"/>
<path d="M206.59 298.71L85.5768 319.29C78.6353 320.47 72.0521 315.788 70.8685 308.831L26.4648 47.7983C25.2812 40.8416 29.9467 34.2433 36.8883 33.0627L157.901 12.4834C164.843 11.3028 171.426 15.9857 172.609 22.9423L217.013 283.975C218.197 290.932 213.527 297.531 206.59 298.71Z" fill="#F8F8F8"/>
<path d="M161.082 36.8087L134.383 41.615C131.75 42.0889 129.186 40.2034 128.686 37.4257L127.536 31.0394C127.036 28.2617 128.782 25.6004 131.414 25.1265L158.114 20.3202C160.747 19.8463 163.311 21.7318 163.811 24.5095L164.96 30.8917C165.461 33.6735 163.715 36.3348 161.082 36.8087Z" fill="#CBD212"/>
<path d="M136.823 37.767L136.571 37.8124C134.817 38.128 133.154 37.0244 132.854 35.3529L132.164 31.5207C131.862 29.8455 133.04 28.2342 134.79 27.9193L135.042 27.8739C136.795 27.5583 138.458 28.662 138.759 30.3334L139.449 34.1657C139.754 35.8364 138.576 37.4514 136.823 37.767Z" fill="#353535"/>
<path d="M112.863 122.194C92.4828 125.864 78.8747 145.448 82.5439 165.828C86.2131 186.208 105.797 199.816 126.177 196.147C146.557 192.478 160.166 172.894 156.496 152.513C152.827 132.133 133.243 118.525 112.863 122.194L112.863 122.194ZM114.119 129.171C130.729 126.181 146.529 137.16 149.52 153.769C152.51 170.379 141.531 186.18 124.921 189.17C108.312 192.161 92.5109 181.181 89.5205 164.572C86.5302 147.962 97.5094 132.161 114.119 129.171L114.119 129.171Z" fill="#BCC015"/>
<path fill-rule="evenodd" clip-rule="evenodd" d="M133.555 141.5C132.654 141.69 131.861 142.223 131.346 142.986L115.063 166.421L104.801 159.29C104.419 159.013 103.986 158.815 103.527 158.708C103.068 158.601 102.592 158.586 102.127 158.665C101.662 158.744 101.218 158.915 100.82 159.168C100.422 159.42 100.078 159.75 99.8094 160.137C99.5403 160.524 99.3512 160.961 99.2531 161.423C99.1551 161.884 99.15 162.36 99.2382 162.823C99.3263 163.286 99.506 163.727 99.7667 164.12C100.027 164.513 100.364 164.85 100.756 165.111L113.929 174.264C114.701 174.8 115.654 175.008 116.579 174.841C117.504 174.674 118.325 174.147 118.861 173.376L137.167 147.031C137.583 146.45 137.813 145.758 137.828 145.044C137.843 144.33 137.642 143.628 137.252 143.031C136.861 142.433 136.3 141.967 135.64 141.694C134.98 141.421 134.253 141.353 133.555 141.5Z" fill="#BCC015"/>
<path d="M100.723 210.91C94.425 212.044 91.2418 216.977 92.4605 223.746C93.6764 230.5 98.3802 234.013 104.678 232.879C110.961 231.748 114.159 226.812 112.943 220.058C111.724 213.289 107.006 209.779 100.723 210.91ZM101.39 214.618C104.863 213.993 107.594 216.418 108.396 220.877C109.196 225.32 107.48 228.531 104.008 229.156C100.52 229.784 97.7926 227.374 96.9925 222.93C96.1898 218.471 97.9178 215.243 101.39 214.618ZM119.422 219.879L119.363 219.89L117.095 207.294L112.799 208.068L116.804 230.316L121.101 229.542L120.129 224.142L121.066 222.682L127.002 228.48L131.946 227.59L123.749 219.525L128.735 211.442L123.849 212.322L119.422 219.879ZM138.105 223.443C136.545 223.723 135.395 223.156 135.18 221.964C134.966 220.772 135.795 219.894 137.569 219.453L140.926 218.605L141.14 219.797C141.458 221.563 140.092 223.085 138.105 223.443ZM137.271 226.829C139.346 226.455 141.167 225.094 141.745 223.243L141.834 223.227L142.284 225.729L146.434 224.981L144.433 213.872C143.851 210.635 140.744 208.991 136.58 209.741C132.534 210.47 130.122 213.107 130.561 216.218L134.489 215.51C134.483 214.296 135.424 213.276 136.984 212.995C138.749 212.677 139.977 213.337 140.258 214.897L140.451 215.971L136.45 216.95C132.36 217.945 130.408 220.013 130.938 222.956C131.46 225.854 134.152 227.39 137.271 226.829ZM151.642 230.151C155.689 229.422 157.413 227.608 158.052 223.224L160.683 205.69L156.151 206.506L154.923 219.853L154.835 219.869L149.044 207.786L144.335 208.633L152.95 223.915L152.914 224.559C152.809 225.915 151.983 226.641 150.379 226.93C150.202 226.961 149.552 227.063 149.4 227.06L149.998 230.386C150.166 230.386 151.48 230.18 151.642 230.151ZM161.787 200.296L164.705 214.476L168.413 213.808L166.201 199.501L161.787 200.296ZM167.883 221.499C169.222 221.258 170.099 220.052 169.866 218.757C169.633 217.463 168.39 216.638 167.051 216.879C165.712 217.12 164.836 218.326 165.069 219.621C165.302 220.916 166.544 221.741 167.883 221.499Z" fill="black"/>
</svg>
