<svg width="72" height="73" viewBox="0 0 72 73" fill="none" xmlns="http://www.w3.org/2000/svg">
<rect x="0.252441" width="71.0805" height="72.6601" rx="35.5403" fill="#7A7A7A" fill-opacity="0.2"/>
<path d="M28.3907 36.3293C28.3907 32.1494 31.7046 28.76 35.7937 28.76C39.8828 28.76 43.1985 32.1494 43.1985 36.3293C43.1985 40.5093 39.8828 43.8987 35.7937 43.8987C31.7046 43.8987 28.3907 40.5093 28.3907 36.3293ZM24.3878 36.3293C24.3878 42.7688 29.4942 47.9887 35.7937 47.9887C42.0932 47.9887 47.1997 42.7688 47.1997 36.3293C47.1997 29.8898 42.0932 24.6699 35.7937 24.6699C29.4942 24.6699 24.3878 29.8898 24.3878 36.3293ZM44.9857 24.2076C44.9855 24.7465 45.1416 25.2734 45.4343 25.7216C45.727 26.1698 46.1432 26.5192 46.6302 26.7256C47.1171 26.9321 47.6531 26.9863 48.1702 26.8813C48.6873 26.7764 49.1623 26.5171 49.5353 26.1362C49.9082 25.7553 50.1622 25.2699 50.2653 24.7414C50.3683 24.2129 50.3158 23.665 50.1142 23.167C49.9127 22.669 49.5712 22.2434 49.133 21.9438C48.6947 21.6442 48.1795 21.4842 47.6523 21.484H47.6512C46.9445 21.4843 46.2669 21.7713 45.7671 22.282C45.2674 22.7927 44.9863 23.4853 44.9857 24.2076V24.2076ZM26.8198 54.8117C24.6542 54.7109 23.4771 54.3421 22.6948 54.0306C21.6578 53.6179 20.9178 53.1264 20.1398 52.3322C19.3619 51.538 18.8803 50.7823 18.4783 49.7222C18.1734 48.923 17.8127 47.7193 17.7142 45.5056C17.6065 43.1122 17.585 42.3932 17.585 36.3295C17.585 30.2658 17.6083 29.5489 17.7142 27.1534C17.8128 24.9397 18.1762 23.7384 18.4783 22.9368C18.8821 21.8767 19.3629 21.1203 20.1398 20.325C20.9167 19.5298 21.656 19.0375 22.6948 18.6266C23.4767 18.3149 24.6542 17.9461 26.8198 17.8455C29.1612 17.7354 29.8645 17.7134 35.7937 17.7134C41.7229 17.7134 42.427 17.7372 44.7703 17.8455C46.936 17.9463 48.1111 18.3178 48.8953 18.6266C49.9324 19.0375 50.6723 19.5309 51.4503 20.325C52.2283 21.1192 52.708 21.8767 53.1118 22.9368C53.4167 23.7361 53.7775 24.9397 53.8759 27.1534C53.9836 29.5489 54.0051 30.2658 54.0051 36.3295C54.0051 42.3932 53.9836 43.1102 53.8759 45.5056C53.7773 47.7193 53.4148 48.9226 53.1118 49.7222C52.708 50.7823 52.2272 51.5387 51.4503 52.3322C50.6734 53.1256 49.9324 53.6179 48.8953 54.0306C48.1134 54.3423 46.936 54.7111 44.7703 54.8117C42.4289 54.9218 41.7256 54.9438 35.7937 54.9438C29.8619 54.9438 29.1605 54.9218 26.8198 54.8117V54.8117ZM26.6359 13.7606C24.2712 13.8706 22.6554 14.2539 21.2442 14.8152C19.7828 15.3949 18.5457 16.1725 17.3094 17.4343C16.0731 18.696 15.3144 19.9626 14.7473 21.4565C14.1982 22.8999 13.8233 24.5508 13.7156 26.968C13.6061 29.389 13.5811 30.163 13.5811 36.3293C13.5811 42.4956 13.6061 43.2696 13.7156 45.6907C13.8233 48.1081 14.1982 49.7587 14.7473 51.2021C15.3144 52.6951 16.0733 53.9632 17.3094 55.2244C18.5455 56.4856 19.7828 57.2622 21.2442 57.8434C22.658 58.4047 24.2712 58.788 26.6359 58.8981C29.0055 59.0082 29.7615 59.0356 35.7937 59.0356C41.826 59.0356 42.5832 59.01 44.9516 58.8981C47.3164 58.788 48.9312 58.4047 50.3432 57.8434C51.8037 57.2622 53.0418 56.4862 54.278 55.2244C55.5143 53.9627 56.2715 52.6951 56.8401 51.2021C57.3892 49.7587 57.766 48.1079 57.8719 45.6907C57.9796 43.2678 58.0046 42.4956 58.0046 36.3293C58.0046 30.163 57.9796 29.389 57.8719 26.968C57.7642 24.5506 57.3892 22.899 56.8401 21.4565C56.2715 19.9635 55.5124 18.698 54.278 17.4343C53.0437 16.1705 51.8037 15.3949 50.345 14.8152C48.9312 14.2539 47.3162 13.8688 44.9533 13.7606C42.5849 13.6505 41.8277 13.623 35.7955 13.623C29.7632 13.623 29.0055 13.6487 26.6359 13.7606Z" fill="white"/>
</svg>
