<svg width="128" height="55" viewBox="0 0 128 55" fill="none" xmlns="http://www.w3.org/2000/svg">
<path d="M9.01756 22.5935C9.94244 22.5935 10.8343 22.4944 11.4289 22.3787V18.7948C10.9664 18.8444 10.6361 18.8774 10.0085 18.8774C8.37345 18.8774 7.67979 18.1507 7.67979 16.5157V7.97707H11.4289V4.34362H7.67979V0H2.80767V4.34362H0V7.97707H2.80767V17.6222C2.80767 21.1566 4.59136 22.5935 9.01756 22.5935Z" fill="#9FA0A2"/>
<path d="M15.4422 22.5274H20.2647V12.3537C20.2647 9.77728 21.9989 8.20829 24.7405 8.20829C25.4837 8.20829 26.2269 8.3239 26.9536 8.48906V4.27756C26.4746 4.14544 25.7975 4.04634 25.1534 4.04634C22.7916 4.04634 21.1401 5.20244 20.562 7.16781H20.2647V4.34362H15.4422V22.5274Z" fill="#9FA0A2"/>
<path d="M34.7985 22.8082C37.1768 22.8082 39.0926 21.8007 40.0175 20.1161H40.3148V22.5274H45.0713V10.1076C45.0713 6.22641 42.3462 3.94725 37.5236 3.94725C32.9488 3.94725 29.9429 6.06125 29.5631 9.24878L29.5466 9.39742H34.0058L34.0388 9.33136C34.4187 8.25784 35.5252 7.64676 37.2594 7.64676C39.2413 7.64676 40.3148 8.53861 40.3148 10.1076V11.6105L35.9216 11.8748C31.3963 12.139 28.8694 14.0548 28.8694 17.3249V17.358C28.8694 20.6611 31.3302 22.8082 34.7985 22.8082ZM33.5764 17.0607V17.0277C33.5764 15.7064 34.5838 14.9302 36.6483 14.798L40.3148 14.5668V15.9046C40.3148 17.8204 38.6467 19.2903 36.4171 19.2903C34.749 19.2903 33.5764 18.448 33.5764 17.0607Z" fill="#9FA0A2"/>
<path d="M49.7948 22.5274H54.6174V12.0069C54.6174 9.54606 55.9716 7.94404 58.2013 7.94404C60.4804 7.94404 61.5374 9.29833 61.5374 11.8583V22.5274H66.36V10.7682C66.36 6.4246 64.1799 3.94725 60.1336 3.94725C57.5406 3.94725 55.7404 5.18592 54.9146 7.15129H54.6174V4.34362H49.7948V22.5274Z" fill="#9FA0A2"/>
<path d="M78.2678 22.9072C82.9252 22.9072 86.2449 20.562 86.2449 16.9616V16.9451C86.2449 14.253 84.5438 12.7336 80.9103 11.9574L77.8879 11.3132C76.0051 10.9003 75.328 10.3388 75.328 9.36439V9.34788C75.328 8.12572 76.5171 7.34948 78.1852 7.34948C79.9854 7.34948 81.059 8.25784 81.3232 9.23227L81.3397 9.31485H85.8155V9.24878C85.6173 6.32551 82.9748 3.94725 78.2017 3.94725C73.6599 3.94725 70.621 6.22641 70.621 9.64516V9.66167C70.621 12.3868 72.3387 14.0879 75.807 14.8311L78.8458 15.4752C80.6956 15.8881 81.4223 16.4992 81.4223 17.4736V17.5066C81.4223 18.7123 80.1671 19.505 78.3174 19.505C76.4181 19.505 75.3115 18.6958 74.9316 17.5727L74.8986 17.5066H70.1586L70.1751 17.5727C70.5219 20.6941 73.3296 22.9072 78.2678 22.9072Z" fill="#9FA0A2"/>
<path d="M31.3964 48.2789C33.7747 48.2789 35.6905 47.2714 36.6154 45.5868H36.9127V47.9981H41.6692V35.5783C41.6692 31.6971 38.9441 29.418 34.1215 29.418C29.5467 29.418 26.5408 31.532 26.1609 34.7195L26.1444 34.8681H30.6037L30.6367 34.8021C31.0166 33.7286 32.1231 33.1175 33.8573 33.1175C35.8391 33.1175 36.9127 34.0093 36.9127 35.5783V37.0812L32.5195 37.3455C27.9942 37.6097 25.4673 39.5256 25.4673 42.7957V42.8287C25.4673 46.1318 27.9281 48.2789 31.3964 48.2789ZM30.1743 42.5314V42.4984C30.1743 41.1771 31.1817 40.4009 33.2462 40.2688L36.9127 40.0376V41.3753C36.9127 43.2911 35.2446 44.761 33.0149 44.761C31.3469 44.761 30.1743 43.9187 30.1743 42.5314Z" fill="#9FA0A2"/>
<path d="M46.3926 54.0263H51.2152V45.0914H51.5125C52.4374 47.0732 54.4688 48.2789 56.9627 48.2789C61.5706 48.2789 64.3452 44.761 64.3452 38.9145V38.8815C64.3452 33.0845 61.5045 29.5171 56.9627 29.5171C54.3862 29.5171 52.4539 30.6732 51.5125 32.622H51.2152V29.8143H46.3926V54.0263ZM55.3111 44.2821C52.7842 44.2821 51.1657 42.2507 51.1657 38.9145V38.8815C51.1657 35.5453 52.7677 33.5139 55.3111 33.5139C57.871 33.5139 59.44 35.5453 59.44 38.8815V38.9145C59.44 42.2507 57.8545 44.2821 55.3111 44.2821Z" fill="#9FA0A2"/>
<path d="M68.2924 54.0263H73.115V45.0914H73.4123C74.3372 47.0732 76.3686 48.2789 78.8625 48.2789C83.4703 48.2789 86.245 44.761 86.245 38.9145V38.8815C86.245 33.0845 83.4043 29.5171 78.8625 29.5171C76.286 29.5171 74.3537 30.6732 73.4123 32.622H73.115V29.8143H68.2924V54.0263ZM77.2109 44.2821C74.684 44.2821 73.0655 42.2507 73.0655 38.9145V38.8815C73.0655 35.5453 74.6675 33.5139 77.2109 33.5139C79.7708 33.5139 81.3398 35.5453 81.3398 38.8815V38.9145C81.3398 42.2507 79.7543 44.2821 77.2109 44.2821Z" fill="#9FA0A2"/>
<path fill-rule="evenodd" clip-rule="evenodd" d="M116.829 39.9563L128 28.7846L127.999 28.7832L116.827 17.6116L105.657 6.44141L94.4854 17.613L105.656 28.7832L94.4839 39.9548L105.656 51.1264L116.827 39.9548L116.829 39.9563Z" fill="#9FA0A2"/>
</svg>
